<mxfile host="app.diagrams.net" modified="2023-10-23T12:09:31.096Z" agent="Mozilla/5.0 (Windows NT 10.0; Win64; x64) AppleWebKit/537.36 (KHTML, like Gecko) Chrome/118.0.0.0 Safari/537.36" etag="JNw4yDKhCRR2zXfioqKl" version="22.0.6" type="device" pages="3">
  <diagram id="mCyr1kptdM3YggUfpTlr" name="Варіант (а)">
    <mxGraphModel dx="1050" dy="542" grid="1" gridSize="10" guides="1" tooltips="1" connect="1" arrows="1" fold="1" page="1" pageScale="1" pageWidth="850" pageHeight="1100" math="0" shadow="0">
      <root>
        <mxCell id="0" />
        <mxCell id="1" parent="0" />
        <mxCell id="K9VBhdeOLqhP3uieEbr1-109" value="" style="rounded=0;whiteSpace=wrap;html=1;align=left;" parent="1" vertex="1">
          <mxGeometry x="297.5" y="310" width="80" height="110" as="geometry" />
        </mxCell>
        <mxCell id="K9VBhdeOLqhP3uieEbr1-110" value="&lt;b&gt;User&lt;/b&gt;" style="rounded=0;whiteSpace=wrap;html=1;" parent="1" vertex="1">
          <mxGeometry x="267.5" y="250" width="110" height="30" as="geometry" />
        </mxCell>
        <mxCell id="K9VBhdeOLqhP3uieEbr1-111" value="&lt;b&gt;PK&lt;/b&gt;" style="rounded=0;whiteSpace=wrap;html=1;" parent="1" vertex="1">
          <mxGeometry x="267.5" y="280" width="30" height="30" as="geometry" />
        </mxCell>
        <mxCell id="K9VBhdeOLqhP3uieEbr1-112" value="" style="rounded=0;whiteSpace=wrap;html=1;" parent="1" vertex="1">
          <mxGeometry x="267.5" y="310" width="30" height="110" as="geometry" />
        </mxCell>
        <mxCell id="K9VBhdeOLqhP3uieEbr1-113" value="&lt;b&gt;user_id&lt;/b&gt;" style="rounded=0;whiteSpace=wrap;html=1;align=left;" parent="1" vertex="1">
          <mxGeometry x="297.5" y="280" width="80" height="30" as="geometry" />
        </mxCell>
        <mxCell id="K9VBhdeOLqhP3uieEbr1-117" value="num_card" style="text;html=1;align=center;verticalAlign=middle;resizable=0;points=[];autosize=1;strokeColor=none;fillColor=none;" parent="1" vertex="1">
          <mxGeometry x="287.5" y="310" width="80" height="30" as="geometry" />
        </mxCell>
        <mxCell id="K9VBhdeOLqhP3uieEbr1-118" value="valid_per" style="text;html=1;align=center;verticalAlign=middle;resizable=0;points=[];autosize=1;strokeColor=none;fillColor=none;" parent="1" vertex="1">
          <mxGeometry x="292.5" y="330" width="70" height="30" as="geometry" />
        </mxCell>
        <mxCell id="K9VBhdeOLqhP3uieEbr1-119" value="CVV2" style="text;html=1;align=center;verticalAlign=middle;resizable=0;points=[];autosize=1;strokeColor=none;fillColor=none;" parent="1" vertex="1">
          <mxGeometry x="292.5" y="350" width="50" height="30" as="geometry" />
        </mxCell>
        <mxCell id="K9VBhdeOLqhP3uieEbr1-123" value="customer_id" style="text;html=1;align=center;verticalAlign=middle;resizable=0;points=[];autosize=1;strokeColor=none;fillColor=none;" parent="1" vertex="1">
          <mxGeometry x="287.5" y="390" width="90" height="30" as="geometry" />
        </mxCell>
        <mxCell id="K9VBhdeOLqhP3uieEbr1-124" value="&lt;b&gt;FK&lt;/b&gt;" style="text;html=1;align=center;verticalAlign=middle;resizable=0;points=[];autosize=1;strokeColor=none;fillColor=none;" parent="1" vertex="1">
          <mxGeometry x="260" y="390" width="40" height="30" as="geometry" />
        </mxCell>
        <mxCell id="K9VBhdeOLqhP3uieEbr1-128" value="&lt;b&gt;Operator&lt;/b&gt;" style="rounded=0;whiteSpace=wrap;html=1;" parent="1" vertex="1">
          <mxGeometry x="297.5" y="470" width="110" height="30" as="geometry" />
        </mxCell>
        <mxCell id="K9VBhdeOLqhP3uieEbr1-129" value="&lt;b&gt;PK&lt;br&gt;&lt;/b&gt;" style="rounded=0;whiteSpace=wrap;html=1;" parent="1" vertex="1">
          <mxGeometry x="297.5" y="500" width="30" height="30" as="geometry" />
        </mxCell>
        <mxCell id="K9VBhdeOLqhP3uieEbr1-131" value="&lt;b&gt;operator_id&lt;/b&gt;" style="rounded=0;whiteSpace=wrap;html=1;align=left;" parent="1" vertex="1">
          <mxGeometry x="327.5" y="500" width="80" height="30" as="geometry" />
        </mxCell>
        <mxCell id="K9VBhdeOLqhP3uieEbr1-149" value="" style="rounded=0;whiteSpace=wrap;html=1;align=left;" parent="1" vertex="1">
          <mxGeometry x="505" y="320" width="80" height="150" as="geometry" />
        </mxCell>
        <mxCell id="K9VBhdeOLqhP3uieEbr1-150" value="&lt;b&gt;Customer&lt;/b&gt;" style="rounded=0;whiteSpace=wrap;html=1;" parent="1" vertex="1">
          <mxGeometry x="475" y="260" width="110" height="30" as="geometry" />
        </mxCell>
        <mxCell id="K9VBhdeOLqhP3uieEbr1-151" value="&lt;b&gt;&amp;nbsp;PK&lt;/b&gt;" style="rounded=0;whiteSpace=wrap;html=1;" parent="1" vertex="1">
          <mxGeometry x="475" y="290" width="30" height="30" as="geometry" />
        </mxCell>
        <mxCell id="K9VBhdeOLqhP3uieEbr1-152" value="" style="rounded=0;whiteSpace=wrap;html=1;" parent="1" vertex="1">
          <mxGeometry x="475" y="320" width="30" height="150" as="geometry" />
        </mxCell>
        <mxCell id="K9VBhdeOLqhP3uieEbr1-153" value="&lt;b&gt;customer_id&lt;/b&gt;" style="rounded=0;whiteSpace=wrap;html=1;align=left;" parent="1" vertex="1">
          <mxGeometry x="505" y="290" width="80" height="30" as="geometry" />
        </mxCell>
        <mxCell id="K9VBhdeOLqhP3uieEbr1-158" value="operator_id" style="text;html=1;align=center;verticalAlign=middle;resizable=0;points=[];autosize=1;strokeColor=none;fillColor=none;" parent="1" vertex="1">
          <mxGeometry x="500" y="440" width="80" height="30" as="geometry" />
        </mxCell>
        <mxCell id="K9VBhdeOLqhP3uieEbr1-159" value="&lt;b&gt;FK&lt;/b&gt;" style="text;html=1;align=center;verticalAlign=middle;resizable=0;points=[];autosize=1;strokeColor=none;fillColor=none;" parent="1" vertex="1">
          <mxGeometry x="470" y="440" width="40" height="30" as="geometry" />
        </mxCell>
        <mxCell id="K9VBhdeOLqhP3uieEbr1-165" value="" style="rounded=0;whiteSpace=wrap;html=1;align=left;" parent="1" vertex="1">
          <mxGeometry x="685" y="350" width="85" height="110" as="geometry" />
        </mxCell>
        <mxCell id="K9VBhdeOLqhP3uieEbr1-166" value="&lt;b&gt;Food&lt;/b&gt;" style="rounded=0;whiteSpace=wrap;html=1;" parent="1" vertex="1">
          <mxGeometry x="655" y="290" width="115" height="30" as="geometry" />
        </mxCell>
        <mxCell id="K9VBhdeOLqhP3uieEbr1-167" value="&lt;b&gt;PK&lt;/b&gt;" style="rounded=0;whiteSpace=wrap;html=1;" parent="1" vertex="1">
          <mxGeometry x="655" y="320" width="30" height="30" as="geometry" />
        </mxCell>
        <mxCell id="K9VBhdeOLqhP3uieEbr1-168" value="" style="rounded=0;whiteSpace=wrap;html=1;" parent="1" vertex="1">
          <mxGeometry x="655" y="350" width="30" height="110" as="geometry" />
        </mxCell>
        <mxCell id="K9VBhdeOLqhP3uieEbr1-169" value="&lt;div style=&quot;text-align: center;&quot;&gt;&lt;b style=&quot;background-color: initial;&quot;&gt;food_id&lt;/b&gt;&lt;/div&gt;" style="rounded=0;whiteSpace=wrap;html=1;align=left;" parent="1" vertex="1">
          <mxGeometry x="685" y="320" width="85" height="30" as="geometry" />
        </mxCell>
        <mxCell id="K9VBhdeOLqhP3uieEbr1-170" value="name" style="text;html=1;align=center;verticalAlign=middle;resizable=0;points=[];autosize=1;strokeColor=none;fillColor=none;" parent="1" vertex="1">
          <mxGeometry x="680" y="350" width="50" height="30" as="geometry" />
        </mxCell>
        <mxCell id="K9VBhdeOLqhP3uieEbr1-171" value="quantity" style="text;html=1;align=center;verticalAlign=middle;resizable=0;points=[];autosize=1;strokeColor=none;fillColor=none;" parent="1" vertex="1">
          <mxGeometry x="675" y="370" width="70" height="30" as="geometry" />
        </mxCell>
        <mxCell id="K9VBhdeOLqhP3uieEbr1-174" value="customer_id" style="text;html=1;align=center;verticalAlign=middle;resizable=0;points=[];autosize=1;strokeColor=none;fillColor=none;" parent="1" vertex="1">
          <mxGeometry x="672.5" y="430" width="90" height="30" as="geometry" />
        </mxCell>
        <mxCell id="K9VBhdeOLqhP3uieEbr1-175" value="&lt;b&gt;FK&lt;/b&gt;" style="text;html=1;align=center;verticalAlign=middle;resizable=0;points=[];autosize=1;strokeColor=none;fillColor=none;" parent="1" vertex="1">
          <mxGeometry x="647.5" y="430" width="40" height="30" as="geometry" />
        </mxCell>
        <mxCell id="K9VBhdeOLqhP3uieEbr1-179" value="" style="edgeStyle=entityRelationEdgeStyle;fontSize=12;html=1;endArrow=ERoneToMany;rounded=0;exitX=1;exitY=0.5;exitDx=0;exitDy=0;" parent="1" source="K9VBhdeOLqhP3uieEbr1-153" edge="1">
          <mxGeometry width="100" height="100" relative="1" as="geometry">
            <mxPoint x="626" y="250" as="sourcePoint" />
            <mxPoint x="650" y="447" as="targetPoint" />
            <Array as="points">
              <mxPoint x="691" y="195" />
            </Array>
          </mxGeometry>
        </mxCell>
        <mxCell id="K9VBhdeOLqhP3uieEbr1-191" value="" style="edgeStyle=entityRelationEdgeStyle;fontSize=12;html=1;endArrow=ERoneToMany;rounded=0;exitX=1;exitY=0.5;exitDx=0;exitDy=0;" parent="1" source="K9VBhdeOLqhP3uieEbr1-131" target="K9VBhdeOLqhP3uieEbr1-159" edge="1">
          <mxGeometry width="100" height="100" relative="1" as="geometry">
            <mxPoint x="300" y="400" as="sourcePoint" />
            <mxPoint x="400" y="300" as="targetPoint" />
          </mxGeometry>
        </mxCell>
        <mxCell id="zKbxc6WxqbrizppDIl1E-2" value="" style="group" parent="1" vertex="1" connectable="0">
          <mxGeometry x="292.5" y="530" width="115" height="60" as="geometry" />
        </mxCell>
        <mxCell id="K9VBhdeOLqhP3uieEbr1-127" value="" style="rounded=0;whiteSpace=wrap;html=1;align=left;" parent="zKbxc6WxqbrizppDIl1E-2" vertex="1">
          <mxGeometry x="35" width="80" height="26.666666666666664" as="geometry" />
        </mxCell>
        <mxCell id="K9VBhdeOLqhP3uieEbr1-130" value="" style="rounded=0;whiteSpace=wrap;html=1;" parent="zKbxc6WxqbrizppDIl1E-2" vertex="1">
          <mxGeometry x="5" width="30" height="26.666666666666664" as="geometry" />
        </mxCell>
        <mxCell id="zKbxc6WxqbrizppDIl1E-3" value="num_card" style="text;html=1;align=center;verticalAlign=middle;resizable=0;points=[];autosize=1;strokeColor=none;fillColor=none;" parent="1" vertex="1">
          <mxGeometry x="500" y="320" width="80" height="30" as="geometry" />
        </mxCell>
        <mxCell id="zKbxc6WxqbrizppDIl1E-4" value="valid_per" style="text;html=1;align=center;verticalAlign=middle;resizable=0;points=[];autosize=1;strokeColor=none;fillColor=none;" parent="1" vertex="1">
          <mxGeometry x="505" y="340" width="70" height="30" as="geometry" />
        </mxCell>
        <mxCell id="zKbxc6WxqbrizppDIl1E-5" value="CVV2" style="text;html=1;align=center;verticalAlign=middle;resizable=0;points=[];autosize=1;strokeColor=none;fillColor=none;" parent="1" vertex="1">
          <mxGeometry x="505" y="360" width="50" height="30" as="geometry" />
        </mxCell>
        <mxCell id="VgWpRsLvSw-a2g860Sd8-1" value="pin_code" style="text;html=1;align=center;verticalAlign=middle;resizable=0;points=[];autosize=1;strokeColor=none;fillColor=none;" parent="1" vertex="1">
          <mxGeometry x="290" y="370" width="70" height="30" as="geometry" />
        </mxCell>
        <mxCell id="VgWpRsLvSw-a2g860Sd8-2" value="weight" style="text;html=1;align=center;verticalAlign=middle;resizable=0;points=[];autosize=1;strokeColor=none;fillColor=none;" parent="1" vertex="1">
          <mxGeometry x="675" y="390" width="60" height="30" as="geometry" />
        </mxCell>
        <mxCell id="VgWpRsLvSw-a2g860Sd8-3" value="cost" style="text;html=1;align=center;verticalAlign=middle;resizable=0;points=[];autosize=1;strokeColor=none;fillColor=none;" parent="1" vertex="1">
          <mxGeometry x="675" y="410" width="50" height="30" as="geometry" />
        </mxCell>
        <mxCell id="VgWpRsLvSw-a2g860Sd8-4" value="pin_code" style="text;html=1;align=center;verticalAlign=middle;resizable=0;points=[];autosize=1;strokeColor=none;fillColor=none;" parent="1" vertex="1">
          <mxGeometry x="500" y="380" width="70" height="30" as="geometry" />
        </mxCell>
        <mxCell id="l3X3hsxqmJwpAOz4Mipw-1" value="" style="endArrow=none;html=1;rounded=0;exitX=1.004;exitY=0.52;exitDx=0;exitDy=0;exitPerimeter=0;entryX=0;entryY=0.25;entryDx=0;entryDy=0;" edge="1" parent="1" source="K9VBhdeOLqhP3uieEbr1-123" target="K9VBhdeOLqhP3uieEbr1-151">
          <mxGeometry width="50" height="50" relative="1" as="geometry">
            <mxPoint x="400" y="310" as="sourcePoint" />
            <mxPoint x="450" y="260" as="targetPoint" />
          </mxGeometry>
        </mxCell>
        <mxCell id="l3X3hsxqmJwpAOz4Mipw-4" value="telephone" style="text;html=1;align=center;verticalAlign=middle;resizable=0;points=[];autosize=1;strokeColor=none;fillColor=none;" vertex="1" parent="1">
          <mxGeometry x="500" y="400" width="80" height="30" as="geometry" />
        </mxCell>
        <mxCell id="l3X3hsxqmJwpAOz4Mipw-5" value="email" style="text;html=1;align=center;verticalAlign=middle;resizable=0;points=[];autosize=1;strokeColor=none;fillColor=none;" vertex="1" parent="1">
          <mxGeometry x="505" y="420" width="50" height="30" as="geometry" />
        </mxCell>
      </root>
    </mxGraphModel>
  </diagram>
  <diagram name="Варіант (b)" id="RiiAwfqw73dtremXpdQP">
    <mxGraphModel dx="1108" dy="1582" grid="1" gridSize="10" guides="1" tooltips="1" connect="1" arrows="1" fold="1" page="1" pageScale="1" pageWidth="850" pageHeight="1100" math="0" shadow="0">
      <root>
        <mxCell id="gezteYiFKmW2SbijRGQw-0" />
        <mxCell id="gezteYiFKmW2SbijRGQw-1" parent="gezteYiFKmW2SbijRGQw-0" />
        <mxCell id="gezteYiFKmW2SbijRGQw-2" value="dept" style="shape=table;startSize=30;container=1;collapsible=1;childLayout=tableLayout;fixedRows=1;rowLines=0;fontStyle=1;align=center;resizeLast=1;" vertex="1" parent="gezteYiFKmW2SbijRGQw-1">
          <mxGeometry x="140" y="-780" width="180" height="130" as="geometry" />
        </mxCell>
        <mxCell id="gezteYiFKmW2SbijRGQw-3" value="" style="shape=partialRectangle;collapsible=0;dropTarget=0;pointerEvents=0;fillColor=none;top=0;left=0;bottom=1;right=0;points=[[0,0.5],[1,0.5]];portConstraint=eastwest;" vertex="1" parent="gezteYiFKmW2SbijRGQw-2">
          <mxGeometry y="30" width="180" height="30" as="geometry" />
        </mxCell>
        <mxCell id="gezteYiFKmW2SbijRGQw-4" value="PK" style="shape=partialRectangle;connectable=0;fillColor=none;top=0;left=0;bottom=0;right=0;fontStyle=1;overflow=hidden;" vertex="1" parent="gezteYiFKmW2SbijRGQw-3">
          <mxGeometry width="30" height="30" as="geometry">
            <mxRectangle width="30" height="30" as="alternateBounds" />
          </mxGeometry>
        </mxCell>
        <mxCell id="gezteYiFKmW2SbijRGQw-5" value="deptno" style="shape=partialRectangle;connectable=0;fillColor=none;top=0;left=0;bottom=0;right=0;align=left;spacingLeft=6;fontStyle=5;overflow=hidden;" vertex="1" parent="gezteYiFKmW2SbijRGQw-3">
          <mxGeometry x="30" width="150" height="30" as="geometry">
            <mxRectangle width="150" height="30" as="alternateBounds" />
          </mxGeometry>
        </mxCell>
        <mxCell id="gezteYiFKmW2SbijRGQw-6" value="" style="shape=partialRectangle;collapsible=0;dropTarget=0;pointerEvents=0;fillColor=none;top=0;left=0;bottom=0;right=0;points=[[0,0.5],[1,0.5]];portConstraint=eastwest;" vertex="1" parent="gezteYiFKmW2SbijRGQw-2">
          <mxGeometry y="60" width="180" height="30" as="geometry" />
        </mxCell>
        <mxCell id="gezteYiFKmW2SbijRGQw-7" value="" style="shape=partialRectangle;connectable=0;fillColor=none;top=0;left=0;bottom=0;right=0;editable=1;overflow=hidden;" vertex="1" parent="gezteYiFKmW2SbijRGQw-6">
          <mxGeometry width="30" height="30" as="geometry">
            <mxRectangle width="30" height="30" as="alternateBounds" />
          </mxGeometry>
        </mxCell>
        <mxCell id="gezteYiFKmW2SbijRGQw-8" value="name" style="shape=partialRectangle;connectable=0;fillColor=none;top=0;left=0;bottom=0;right=0;align=left;spacingLeft=6;overflow=hidden;" vertex="1" parent="gezteYiFKmW2SbijRGQw-6">
          <mxGeometry x="30" width="150" height="30" as="geometry">
            <mxRectangle width="150" height="30" as="alternateBounds" />
          </mxGeometry>
        </mxCell>
        <mxCell id="gezteYiFKmW2SbijRGQw-9" value="" style="shape=partialRectangle;collapsible=0;dropTarget=0;pointerEvents=0;fillColor=none;top=0;left=0;bottom=0;right=0;points=[[0,0.5],[1,0.5]];portConstraint=eastwest;" vertex="1" parent="gezteYiFKmW2SbijRGQw-2">
          <mxGeometry y="90" width="180" height="30" as="geometry" />
        </mxCell>
        <mxCell id="gezteYiFKmW2SbijRGQw-10" value="FK" style="shape=partialRectangle;connectable=0;fillColor=none;top=0;left=0;bottom=0;right=0;editable=1;overflow=hidden;fontStyle=1" vertex="1" parent="gezteYiFKmW2SbijRGQw-9">
          <mxGeometry width="30" height="30" as="geometry">
            <mxRectangle width="30" height="30" as="alternateBounds" />
          </mxGeometry>
        </mxCell>
        <mxCell id="gezteYiFKmW2SbijRGQw-11" value="locno" style="shape=partialRectangle;connectable=0;fillColor=none;top=0;left=0;bottom=0;right=0;align=left;spacingLeft=6;overflow=hidden;" vertex="1" parent="gezteYiFKmW2SbijRGQw-9">
          <mxGeometry x="30" width="150" height="30" as="geometry">
            <mxRectangle width="150" height="30" as="alternateBounds" />
          </mxGeometry>
        </mxCell>
        <mxCell id="gezteYiFKmW2SbijRGQw-12" value="loc" style="shape=table;startSize=30;container=1;collapsible=1;childLayout=tableLayout;fixedRows=1;rowLines=0;fontStyle=1;align=center;resizeLast=1;" vertex="1" parent="gezteYiFKmW2SbijRGQw-1">
          <mxGeometry x="140" y="-610" width="180" height="90" as="geometry" />
        </mxCell>
        <mxCell id="gezteYiFKmW2SbijRGQw-13" value="" style="shape=partialRectangle;collapsible=0;dropTarget=0;pointerEvents=0;fillColor=none;top=0;left=0;bottom=1;right=0;points=[[0,0.5],[1,0.5]];portConstraint=eastwest;" vertex="1" parent="gezteYiFKmW2SbijRGQw-12">
          <mxGeometry y="30" width="180" height="30" as="geometry" />
        </mxCell>
        <mxCell id="gezteYiFKmW2SbijRGQw-14" value="PK" style="shape=partialRectangle;connectable=0;fillColor=none;top=0;left=0;bottom=0;right=0;fontStyle=1;overflow=hidden;" vertex="1" parent="gezteYiFKmW2SbijRGQw-13">
          <mxGeometry width="30" height="30" as="geometry">
            <mxRectangle width="30" height="30" as="alternateBounds" />
          </mxGeometry>
        </mxCell>
        <mxCell id="gezteYiFKmW2SbijRGQw-15" value="locno" style="shape=partialRectangle;connectable=0;fillColor=none;top=0;left=0;bottom=0;right=0;align=left;spacingLeft=6;fontStyle=5;overflow=hidden;" vertex="1" parent="gezteYiFKmW2SbijRGQw-13">
          <mxGeometry x="30" width="150" height="30" as="geometry">
            <mxRectangle width="150" height="30" as="alternateBounds" />
          </mxGeometry>
        </mxCell>
        <mxCell id="gezteYiFKmW2SbijRGQw-16" value="" style="shape=partialRectangle;collapsible=0;dropTarget=0;pointerEvents=0;fillColor=none;top=0;left=0;bottom=0;right=0;points=[[0,0.5],[1,0.5]];portConstraint=eastwest;" vertex="1" parent="gezteYiFKmW2SbijRGQw-12">
          <mxGeometry y="60" width="180" height="30" as="geometry" />
        </mxCell>
        <mxCell id="gezteYiFKmW2SbijRGQw-17" value="" style="shape=partialRectangle;connectable=0;fillColor=none;top=0;left=0;bottom=0;right=0;editable=1;overflow=hidden;" vertex="1" parent="gezteYiFKmW2SbijRGQw-16">
          <mxGeometry width="30" height="30" as="geometry">
            <mxRectangle width="30" height="30" as="alternateBounds" />
          </mxGeometry>
        </mxCell>
        <mxCell id="gezteYiFKmW2SbijRGQw-18" value="name" style="shape=partialRectangle;connectable=0;fillColor=none;top=0;left=0;bottom=0;right=0;align=left;spacingLeft=6;overflow=hidden;" vertex="1" parent="gezteYiFKmW2SbijRGQw-16">
          <mxGeometry x="30" width="150" height="30" as="geometry">
            <mxRectangle width="150" height="30" as="alternateBounds" />
          </mxGeometry>
        </mxCell>
        <mxCell id="gezteYiFKmW2SbijRGQw-19" value="" style="edgeStyle=elbowEdgeStyle;fontSize=12;html=1;endArrow=ERmany;rounded=0;entryX=0;entryY=0.5;entryDx=0;entryDy=0;" edge="1" parent="gezteYiFKmW2SbijRGQw-1" source="gezteYiFKmW2SbijRGQw-13" target="gezteYiFKmW2SbijRGQw-9">
          <mxGeometry width="100" height="100" relative="1" as="geometry">
            <mxPoint x="200" y="-630" as="sourcePoint" />
            <mxPoint x="300" y="-730" as="targetPoint" />
            <Array as="points">
              <mxPoint x="100" y="-627" />
            </Array>
          </mxGeometry>
        </mxCell>
        <mxCell id="gezteYiFKmW2SbijRGQw-20" value="emp" style="shape=table;startSize=30;container=1;collapsible=1;childLayout=tableLayout;fixedRows=1;rowLines=0;fontStyle=1;align=center;resizeLast=1;" vertex="1" parent="gezteYiFKmW2SbijRGQw-1">
          <mxGeometry x="380" y="-840" width="195" height="270" as="geometry" />
        </mxCell>
        <mxCell id="gezteYiFKmW2SbijRGQw-21" value="" style="shape=partialRectangle;collapsible=0;dropTarget=0;pointerEvents=0;fillColor=none;top=0;left=0;bottom=1;right=0;points=[[0,0.5],[1,0.5]];portConstraint=eastwest;" vertex="1" parent="gezteYiFKmW2SbijRGQw-20">
          <mxGeometry y="30" width="195" height="30" as="geometry" />
        </mxCell>
        <mxCell id="gezteYiFKmW2SbijRGQw-22" value="PK" style="shape=partialRectangle;connectable=0;fillColor=none;top=0;left=0;bottom=0;right=0;fontStyle=1;overflow=hidden;" vertex="1" parent="gezteYiFKmW2SbijRGQw-21">
          <mxGeometry width="30" height="30" as="geometry">
            <mxRectangle width="30" height="30" as="alternateBounds" />
          </mxGeometry>
        </mxCell>
        <mxCell id="gezteYiFKmW2SbijRGQw-23" value="empno" style="shape=partialRectangle;connectable=0;fillColor=none;top=0;left=0;bottom=0;right=0;align=left;spacingLeft=6;fontStyle=5;overflow=hidden;" vertex="1" parent="gezteYiFKmW2SbijRGQw-21">
          <mxGeometry x="30" width="165" height="30" as="geometry">
            <mxRectangle width="165" height="30" as="alternateBounds" />
          </mxGeometry>
        </mxCell>
        <mxCell id="gezteYiFKmW2SbijRGQw-24" value="" style="shape=partialRectangle;collapsible=0;dropTarget=0;pointerEvents=0;fillColor=none;top=0;left=0;bottom=0;right=0;points=[[0,0.5],[1,0.5]];portConstraint=eastwest;" vertex="1" parent="gezteYiFKmW2SbijRGQw-20">
          <mxGeometry y="60" width="195" height="30" as="geometry" />
        </mxCell>
        <mxCell id="gezteYiFKmW2SbijRGQw-25" value="" style="shape=partialRectangle;connectable=0;fillColor=none;top=0;left=0;bottom=0;right=0;editable=1;overflow=hidden;" vertex="1" parent="gezteYiFKmW2SbijRGQw-24">
          <mxGeometry width="30" height="30" as="geometry">
            <mxRectangle width="30" height="30" as="alternateBounds" />
          </mxGeometry>
        </mxCell>
        <mxCell id="gezteYiFKmW2SbijRGQw-26" value="ename" style="shape=partialRectangle;connectable=0;fillColor=none;top=0;left=0;bottom=0;right=0;align=left;spacingLeft=6;overflow=hidden;" vertex="1" parent="gezteYiFKmW2SbijRGQw-24">
          <mxGeometry x="30" width="165" height="30" as="geometry">
            <mxRectangle width="165" height="30" as="alternateBounds" />
          </mxGeometry>
        </mxCell>
        <mxCell id="gezteYiFKmW2SbijRGQw-27" value="" style="shape=partialRectangle;collapsible=0;dropTarget=0;pointerEvents=0;fillColor=none;top=0;left=0;bottom=0;right=0;points=[[0,0.5],[1,0.5]];portConstraint=eastwest;" vertex="1" parent="gezteYiFKmW2SbijRGQw-20">
          <mxGeometry y="90" width="195" height="30" as="geometry" />
        </mxCell>
        <mxCell id="gezteYiFKmW2SbijRGQw-28" value="" style="shape=partialRectangle;connectable=0;fillColor=none;top=0;left=0;bottom=0;right=0;editable=1;overflow=hidden;fontStyle=1" vertex="1" parent="gezteYiFKmW2SbijRGQw-27">
          <mxGeometry width="30" height="30" as="geometry">
            <mxRectangle width="30" height="30" as="alternateBounds" />
          </mxGeometry>
        </mxCell>
        <mxCell id="gezteYiFKmW2SbijRGQw-29" value="job" style="shape=partialRectangle;connectable=0;fillColor=none;top=0;left=0;bottom=0;right=0;align=left;spacingLeft=6;overflow=hidden;" vertex="1" parent="gezteYiFKmW2SbijRGQw-27">
          <mxGeometry x="30" width="165" height="30" as="geometry">
            <mxRectangle width="165" height="30" as="alternateBounds" />
          </mxGeometry>
        </mxCell>
        <mxCell id="gezteYiFKmW2SbijRGQw-33" value="" style="shape=partialRectangle;collapsible=0;dropTarget=0;pointerEvents=0;fillColor=none;top=0;left=0;bottom=0;right=0;points=[[0,0.5],[1,0.5]];portConstraint=eastwest;" vertex="1" parent="gezteYiFKmW2SbijRGQw-20">
          <mxGeometry y="120" width="195" height="30" as="geometry" />
        </mxCell>
        <mxCell id="gezteYiFKmW2SbijRGQw-34" value="" style="shape=partialRectangle;connectable=0;fillColor=none;top=0;left=0;bottom=0;right=0;editable=1;overflow=hidden;fontStyle=1" vertex="1" parent="gezteYiFKmW2SbijRGQw-33">
          <mxGeometry width="30" height="30" as="geometry">
            <mxRectangle width="30" height="30" as="alternateBounds" />
          </mxGeometry>
        </mxCell>
        <mxCell id="gezteYiFKmW2SbijRGQw-35" value="hiredate" style="shape=partialRectangle;connectable=0;fillColor=none;top=0;left=0;bottom=0;right=0;align=left;spacingLeft=6;overflow=hidden;" vertex="1" parent="gezteYiFKmW2SbijRGQw-33">
          <mxGeometry x="30" width="165" height="30" as="geometry">
            <mxRectangle width="165" height="30" as="alternateBounds" />
          </mxGeometry>
        </mxCell>
        <mxCell id="gezteYiFKmW2SbijRGQw-36" value="" style="shape=partialRectangle;collapsible=0;dropTarget=0;pointerEvents=0;fillColor=none;top=0;left=0;bottom=0;right=0;points=[[0,0.5],[1,0.5]];portConstraint=eastwest;" vertex="1" parent="gezteYiFKmW2SbijRGQw-20">
          <mxGeometry y="150" width="195" height="30" as="geometry" />
        </mxCell>
        <mxCell id="gezteYiFKmW2SbijRGQw-37" value="" style="shape=partialRectangle;connectable=0;fillColor=none;top=0;left=0;bottom=0;right=0;editable=1;overflow=hidden;fontStyle=1" vertex="1" parent="gezteYiFKmW2SbijRGQw-36">
          <mxGeometry width="30" height="30" as="geometry">
            <mxRectangle width="30" height="30" as="alternateBounds" />
          </mxGeometry>
        </mxCell>
        <mxCell id="gezteYiFKmW2SbijRGQw-38" value="sal" style="shape=partialRectangle;connectable=0;fillColor=none;top=0;left=0;bottom=0;right=0;align=left;spacingLeft=6;overflow=hidden;" vertex="1" parent="gezteYiFKmW2SbijRGQw-36">
          <mxGeometry x="30" width="165" height="30" as="geometry">
            <mxRectangle width="165" height="30" as="alternateBounds" />
          </mxGeometry>
        </mxCell>
        <mxCell id="gezteYiFKmW2SbijRGQw-39" value="" style="shape=partialRectangle;collapsible=0;dropTarget=0;pointerEvents=0;fillColor=none;top=0;left=0;bottom=0;right=0;points=[[0,0.5],[1,0.5]];portConstraint=eastwest;" vertex="1" parent="gezteYiFKmW2SbijRGQw-20">
          <mxGeometry y="180" width="195" height="30" as="geometry" />
        </mxCell>
        <mxCell id="gezteYiFKmW2SbijRGQw-40" value="" style="shape=partialRectangle;connectable=0;fillColor=none;top=0;left=0;bottom=0;right=0;editable=1;overflow=hidden;fontStyle=1" vertex="1" parent="gezteYiFKmW2SbijRGQw-39">
          <mxGeometry width="30" height="30" as="geometry">
            <mxRectangle width="30" height="30" as="alternateBounds" />
          </mxGeometry>
        </mxCell>
        <mxCell id="gezteYiFKmW2SbijRGQw-41" value="com" style="shape=partialRectangle;connectable=0;fillColor=none;top=0;left=0;bottom=0;right=0;align=left;spacingLeft=6;overflow=hidden;" vertex="1" parent="gezteYiFKmW2SbijRGQw-39">
          <mxGeometry x="30" width="165" height="30" as="geometry">
            <mxRectangle width="165" height="30" as="alternateBounds" />
          </mxGeometry>
        </mxCell>
        <mxCell id="gezteYiFKmW2SbijRGQw-42" value="" style="shape=partialRectangle;collapsible=0;dropTarget=0;pointerEvents=0;fillColor=none;top=0;left=0;bottom=0;right=0;points=[[0,0.5],[1,0.5]];portConstraint=eastwest;" vertex="1" parent="gezteYiFKmW2SbijRGQw-20">
          <mxGeometry y="210" width="195" height="30" as="geometry" />
        </mxCell>
        <mxCell id="gezteYiFKmW2SbijRGQw-43" value="FK" style="shape=partialRectangle;connectable=0;fillColor=none;top=0;left=0;bottom=0;right=0;editable=1;overflow=hidden;fontStyle=1" vertex="1" parent="gezteYiFKmW2SbijRGQw-42">
          <mxGeometry width="30" height="30" as="geometry">
            <mxRectangle width="30" height="30" as="alternateBounds" />
          </mxGeometry>
        </mxCell>
        <mxCell id="gezteYiFKmW2SbijRGQw-44" value="deptno" style="shape=partialRectangle;connectable=0;fillColor=none;top=0;left=0;bottom=0;right=0;align=left;spacingLeft=6;overflow=hidden;" vertex="1" parent="gezteYiFKmW2SbijRGQw-42">
          <mxGeometry x="30" width="165" height="30" as="geometry">
            <mxRectangle width="165" height="30" as="alternateBounds" />
          </mxGeometry>
        </mxCell>
        <mxCell id="9w5AvYkcZSZDb7R4mJsS-26" value="" style="shape=partialRectangle;collapsible=0;dropTarget=0;pointerEvents=0;fillColor=none;top=0;left=0;bottom=0;right=0;points=[[0,0.5],[1,0.5]];portConstraint=eastwest;" vertex="1" parent="gezteYiFKmW2SbijRGQw-20">
          <mxGeometry y="240" width="195" height="30" as="geometry" />
        </mxCell>
        <mxCell id="9w5AvYkcZSZDb7R4mJsS-27" value="FK" style="shape=partialRectangle;connectable=0;fillColor=none;top=0;left=0;bottom=0;right=0;editable=1;overflow=hidden;fontStyle=1" vertex="1" parent="9w5AvYkcZSZDb7R4mJsS-26">
          <mxGeometry width="30" height="30" as="geometry">
            <mxRectangle width="30" height="30" as="alternateBounds" />
          </mxGeometry>
        </mxCell>
        <mxCell id="9w5AvYkcZSZDb7R4mJsS-28" value="mgrno" style="shape=partialRectangle;connectable=0;fillColor=none;top=0;left=0;bottom=0;right=0;align=left;spacingLeft=6;overflow=hidden;" vertex="1" parent="9w5AvYkcZSZDb7R4mJsS-26">
          <mxGeometry x="30" width="165" height="30" as="geometry">
            <mxRectangle width="165" height="30" as="alternateBounds" />
          </mxGeometry>
        </mxCell>
        <mxCell id="gezteYiFKmW2SbijRGQw-46" value="" style="edgeStyle=elbowEdgeStyle;fontSize=12;html=1;endArrow=ERmany;rounded=0;entryX=0;entryY=0.5;entryDx=0;entryDy=0;exitX=1;exitY=0.5;exitDx=0;exitDy=0;" edge="1" parent="gezteYiFKmW2SbijRGQw-1" source="gezteYiFKmW2SbijRGQw-3" target="gezteYiFKmW2SbijRGQw-42">
          <mxGeometry width="100" height="100" relative="1" as="geometry">
            <mxPoint x="230" y="-550" as="sourcePoint" />
            <mxPoint x="300" y="-530" as="targetPoint" />
            <Array as="points">
              <mxPoint x="360" y="-680" />
            </Array>
          </mxGeometry>
        </mxCell>
        <mxCell id="9w5AvYkcZSZDb7R4mJsS-0" value="mgr" style="shape=table;startSize=30;container=1;collapsible=1;childLayout=tableLayout;fixedRows=1;rowLines=0;fontStyle=1;align=center;resizeLast=1;" vertex="1" parent="gezteYiFKmW2SbijRGQw-1">
          <mxGeometry x="620" y="-760" width="180" height="240" as="geometry" />
        </mxCell>
        <mxCell id="9w5AvYkcZSZDb7R4mJsS-1" value="" style="shape=partialRectangle;collapsible=0;dropTarget=0;pointerEvents=0;fillColor=none;top=0;left=0;bottom=1;right=0;points=[[0,0.5],[1,0.5]];portConstraint=eastwest;" vertex="1" parent="9w5AvYkcZSZDb7R4mJsS-0">
          <mxGeometry y="30" width="180" height="30" as="geometry" />
        </mxCell>
        <mxCell id="9w5AvYkcZSZDb7R4mJsS-2" value="PK" style="shape=partialRectangle;connectable=0;fillColor=none;top=0;left=0;bottom=0;right=0;fontStyle=1;overflow=hidden;" vertex="1" parent="9w5AvYkcZSZDb7R4mJsS-1">
          <mxGeometry width="30" height="30" as="geometry">
            <mxRectangle width="30" height="30" as="alternateBounds" />
          </mxGeometry>
        </mxCell>
        <mxCell id="9w5AvYkcZSZDb7R4mJsS-3" value="mgrno" style="shape=partialRectangle;connectable=0;fillColor=none;top=0;left=0;bottom=0;right=0;align=left;spacingLeft=6;fontStyle=5;overflow=hidden;" vertex="1" parent="9w5AvYkcZSZDb7R4mJsS-1">
          <mxGeometry x="30" width="150" height="30" as="geometry">
            <mxRectangle width="150" height="30" as="alternateBounds" />
          </mxGeometry>
        </mxCell>
        <mxCell id="9w5AvYkcZSZDb7R4mJsS-4" value="" style="shape=partialRectangle;collapsible=0;dropTarget=0;pointerEvents=0;fillColor=none;top=0;left=0;bottom=0;right=0;points=[[0,0.5],[1,0.5]];portConstraint=eastwest;" vertex="1" parent="9w5AvYkcZSZDb7R4mJsS-0">
          <mxGeometry y="60" width="180" height="30" as="geometry" />
        </mxCell>
        <mxCell id="9w5AvYkcZSZDb7R4mJsS-5" value="" style="shape=partialRectangle;connectable=0;fillColor=none;top=0;left=0;bottom=0;right=0;editable=1;overflow=hidden;" vertex="1" parent="9w5AvYkcZSZDb7R4mJsS-4">
          <mxGeometry width="30" height="30" as="geometry">
            <mxRectangle width="30" height="30" as="alternateBounds" />
          </mxGeometry>
        </mxCell>
        <mxCell id="9w5AvYkcZSZDb7R4mJsS-6" value="ename" style="shape=partialRectangle;connectable=0;fillColor=none;top=0;left=0;bottom=0;right=0;align=left;spacingLeft=6;overflow=hidden;" vertex="1" parent="9w5AvYkcZSZDb7R4mJsS-4">
          <mxGeometry x="30" width="150" height="30" as="geometry">
            <mxRectangle width="150" height="30" as="alternateBounds" />
          </mxGeometry>
        </mxCell>
        <mxCell id="9w5AvYkcZSZDb7R4mJsS-7" value="" style="shape=partialRectangle;collapsible=0;dropTarget=0;pointerEvents=0;fillColor=none;top=0;left=0;bottom=0;right=0;points=[[0,0.5],[1,0.5]];portConstraint=eastwest;" vertex="1" parent="9w5AvYkcZSZDb7R4mJsS-0">
          <mxGeometry y="90" width="180" height="30" as="geometry" />
        </mxCell>
        <mxCell id="9w5AvYkcZSZDb7R4mJsS-8" value="" style="shape=partialRectangle;connectable=0;fillColor=none;top=0;left=0;bottom=0;right=0;editable=1;overflow=hidden;fontStyle=1" vertex="1" parent="9w5AvYkcZSZDb7R4mJsS-7">
          <mxGeometry width="30" height="30" as="geometry">
            <mxRectangle width="30" height="30" as="alternateBounds" />
          </mxGeometry>
        </mxCell>
        <mxCell id="9w5AvYkcZSZDb7R4mJsS-9" value="job" style="shape=partialRectangle;connectable=0;fillColor=none;top=0;left=0;bottom=0;right=0;align=left;spacingLeft=6;overflow=hidden;" vertex="1" parent="9w5AvYkcZSZDb7R4mJsS-7">
          <mxGeometry x="30" width="150" height="30" as="geometry">
            <mxRectangle width="150" height="30" as="alternateBounds" />
          </mxGeometry>
        </mxCell>
        <mxCell id="9w5AvYkcZSZDb7R4mJsS-13" value="" style="shape=partialRectangle;collapsible=0;dropTarget=0;pointerEvents=0;fillColor=none;top=0;left=0;bottom=0;right=0;points=[[0,0.5],[1,0.5]];portConstraint=eastwest;" vertex="1" parent="9w5AvYkcZSZDb7R4mJsS-0">
          <mxGeometry y="120" width="180" height="30" as="geometry" />
        </mxCell>
        <mxCell id="9w5AvYkcZSZDb7R4mJsS-14" value="" style="shape=partialRectangle;connectable=0;fillColor=none;top=0;left=0;bottom=0;right=0;editable=1;overflow=hidden;fontStyle=1" vertex="1" parent="9w5AvYkcZSZDb7R4mJsS-13">
          <mxGeometry width="30" height="30" as="geometry">
            <mxRectangle width="30" height="30" as="alternateBounds" />
          </mxGeometry>
        </mxCell>
        <mxCell id="9w5AvYkcZSZDb7R4mJsS-15" value="hiredate" style="shape=partialRectangle;connectable=0;fillColor=none;top=0;left=0;bottom=0;right=0;align=left;spacingLeft=6;overflow=hidden;" vertex="1" parent="9w5AvYkcZSZDb7R4mJsS-13">
          <mxGeometry x="30" width="150" height="30" as="geometry">
            <mxRectangle width="150" height="30" as="alternateBounds" />
          </mxGeometry>
        </mxCell>
        <mxCell id="9w5AvYkcZSZDb7R4mJsS-16" value="" style="shape=partialRectangle;collapsible=0;dropTarget=0;pointerEvents=0;fillColor=none;top=0;left=0;bottom=0;right=0;points=[[0,0.5],[1,0.5]];portConstraint=eastwest;" vertex="1" parent="9w5AvYkcZSZDb7R4mJsS-0">
          <mxGeometry y="150" width="180" height="30" as="geometry" />
        </mxCell>
        <mxCell id="9w5AvYkcZSZDb7R4mJsS-17" value="" style="shape=partialRectangle;connectable=0;fillColor=none;top=0;left=0;bottom=0;right=0;editable=1;overflow=hidden;fontStyle=1" vertex="1" parent="9w5AvYkcZSZDb7R4mJsS-16">
          <mxGeometry width="30" height="30" as="geometry">
            <mxRectangle width="30" height="30" as="alternateBounds" />
          </mxGeometry>
        </mxCell>
        <mxCell id="9w5AvYkcZSZDb7R4mJsS-18" value="sal" style="shape=partialRectangle;connectable=0;fillColor=none;top=0;left=0;bottom=0;right=0;align=left;spacingLeft=6;overflow=hidden;" vertex="1" parent="9w5AvYkcZSZDb7R4mJsS-16">
          <mxGeometry x="30" width="150" height="30" as="geometry">
            <mxRectangle width="150" height="30" as="alternateBounds" />
          </mxGeometry>
        </mxCell>
        <mxCell id="9w5AvYkcZSZDb7R4mJsS-19" value="" style="shape=partialRectangle;collapsible=0;dropTarget=0;pointerEvents=0;fillColor=none;top=0;left=0;bottom=0;right=0;points=[[0,0.5],[1,0.5]];portConstraint=eastwest;" vertex="1" parent="9w5AvYkcZSZDb7R4mJsS-0">
          <mxGeometry y="180" width="180" height="30" as="geometry" />
        </mxCell>
        <mxCell id="9w5AvYkcZSZDb7R4mJsS-20" value="" style="shape=partialRectangle;connectable=0;fillColor=none;top=0;left=0;bottom=0;right=0;editable=1;overflow=hidden;fontStyle=1" vertex="1" parent="9w5AvYkcZSZDb7R4mJsS-19">
          <mxGeometry width="30" height="30" as="geometry">
            <mxRectangle width="30" height="30" as="alternateBounds" />
          </mxGeometry>
        </mxCell>
        <mxCell id="9w5AvYkcZSZDb7R4mJsS-21" value="com" style="shape=partialRectangle;connectable=0;fillColor=none;top=0;left=0;bottom=0;right=0;align=left;spacingLeft=6;overflow=hidden;" vertex="1" parent="9w5AvYkcZSZDb7R4mJsS-19">
          <mxGeometry x="30" width="150" height="30" as="geometry">
            <mxRectangle width="150" height="30" as="alternateBounds" />
          </mxGeometry>
        </mxCell>
        <mxCell id="9w5AvYkcZSZDb7R4mJsS-22" value="" style="shape=partialRectangle;collapsible=0;dropTarget=0;pointerEvents=0;fillColor=none;top=0;left=0;bottom=0;right=0;points=[[0,0.5],[1,0.5]];portConstraint=eastwest;" vertex="1" parent="9w5AvYkcZSZDb7R4mJsS-0">
          <mxGeometry y="210" width="180" height="30" as="geometry" />
        </mxCell>
        <mxCell id="9w5AvYkcZSZDb7R4mJsS-23" value="FK" style="shape=partialRectangle;connectable=0;fillColor=none;top=0;left=0;bottom=0;right=0;editable=1;overflow=hidden;fontStyle=1" vertex="1" parent="9w5AvYkcZSZDb7R4mJsS-22">
          <mxGeometry width="30" height="30" as="geometry">
            <mxRectangle width="30" height="30" as="alternateBounds" />
          </mxGeometry>
        </mxCell>
        <mxCell id="9w5AvYkcZSZDb7R4mJsS-24" value="deptno" style="shape=partialRectangle;connectable=0;fillColor=none;top=0;left=0;bottom=0;right=0;align=left;spacingLeft=6;overflow=hidden;" vertex="1" parent="9w5AvYkcZSZDb7R4mJsS-22">
          <mxGeometry x="30" width="150" height="30" as="geometry">
            <mxRectangle width="150" height="30" as="alternateBounds" />
          </mxGeometry>
        </mxCell>
        <mxCell id="9w5AvYkcZSZDb7R4mJsS-25" value="" style="edgeStyle=elbowEdgeStyle;fontSize=12;html=1;endArrow=ERmany;rounded=0;exitX=1;exitY=0.5;exitDx=0;exitDy=0;entryX=0;entryY=0.5;entryDx=0;entryDy=0;" edge="1" parent="gezteYiFKmW2SbijRGQw-1" source="gezteYiFKmW2SbijRGQw-3" target="9w5AvYkcZSZDb7R4mJsS-22">
          <mxGeometry width="100" height="100" relative="1" as="geometry">
            <mxPoint x="390" y="-450" as="sourcePoint" />
            <mxPoint x="660" y="-530" as="targetPoint" />
            <Array as="points">
              <mxPoint x="340" y="-630" />
              <mxPoint x="350" y="-620" />
              <mxPoint x="350" y="-510" />
              <mxPoint x="410" y="-420" />
            </Array>
          </mxGeometry>
        </mxCell>
        <mxCell id="9w5AvYkcZSZDb7R4mJsS-29" value="" style="edgeStyle=elbowEdgeStyle;fontSize=12;html=1;endArrow=ERmany;rounded=0;exitX=0;exitY=0.5;exitDx=0;exitDy=0;entryX=1.015;entryY=0.3;entryDx=0;entryDy=0;entryPerimeter=0;" edge="1" parent="gezteYiFKmW2SbijRGQw-1" source="9w5AvYkcZSZDb7R4mJsS-1" target="9w5AvYkcZSZDb7R4mJsS-26">
          <mxGeometry width="100" height="100" relative="1" as="geometry">
            <mxPoint x="330" y="-725" as="sourcePoint" />
            <mxPoint x="450" y="-605" as="targetPoint" />
            <Array as="points">
              <mxPoint x="600" y="-650" />
            </Array>
          </mxGeometry>
        </mxCell>
      </root>
    </mxGraphModel>
  </diagram>
  <diagram name="Варіант (c)" id="rvxvsrA2Mo_Z0yQ4r2bU">
    <mxGraphModel dx="1108" dy="1582" grid="1" gridSize="10" guides="1" tooltips="1" connect="1" arrows="1" fold="1" page="1" pageScale="1" pageWidth="850" pageHeight="1100" math="0" shadow="0">
      <root>
        <mxCell id="tsf6QHsWhYLNX8EQ_W9M-0" />
        <mxCell id="tsf6QHsWhYLNX8EQ_W9M-1" parent="tsf6QHsWhYLNX8EQ_W9M-0" />
        <mxCell id="RIfUzzzm_-wpYz4NOER9-0" value="dept" style="shape=table;startSize=30;container=1;collapsible=1;childLayout=tableLayout;fixedRows=1;rowLines=0;fontStyle=1;align=center;resizeLast=1;" vertex="1" parent="tsf6QHsWhYLNX8EQ_W9M-1">
          <mxGeometry x="340" y="-709" width="180" height="130" as="geometry" />
        </mxCell>
        <mxCell id="RIfUzzzm_-wpYz4NOER9-1" value="" style="shape=partialRectangle;collapsible=0;dropTarget=0;pointerEvents=0;fillColor=none;top=0;left=0;bottom=1;right=0;points=[[0,0.5],[1,0.5]];portConstraint=eastwest;" vertex="1" parent="RIfUzzzm_-wpYz4NOER9-0">
          <mxGeometry y="30" width="180" height="30" as="geometry" />
        </mxCell>
        <mxCell id="RIfUzzzm_-wpYz4NOER9-2" value="PK" style="shape=partialRectangle;connectable=0;fillColor=none;top=0;left=0;bottom=0;right=0;fontStyle=1;overflow=hidden;" vertex="1" parent="RIfUzzzm_-wpYz4NOER9-1">
          <mxGeometry width="30" height="30" as="geometry">
            <mxRectangle width="30" height="30" as="alternateBounds" />
          </mxGeometry>
        </mxCell>
        <mxCell id="RIfUzzzm_-wpYz4NOER9-3" value="deptno" style="shape=partialRectangle;connectable=0;fillColor=none;top=0;left=0;bottom=0;right=0;align=left;spacingLeft=6;fontStyle=5;overflow=hidden;" vertex="1" parent="RIfUzzzm_-wpYz4NOER9-1">
          <mxGeometry x="30" width="150" height="30" as="geometry">
            <mxRectangle width="150" height="30" as="alternateBounds" />
          </mxGeometry>
        </mxCell>
        <mxCell id="RIfUzzzm_-wpYz4NOER9-4" value="" style="shape=partialRectangle;collapsible=0;dropTarget=0;pointerEvents=0;fillColor=none;top=0;left=0;bottom=0;right=0;points=[[0,0.5],[1,0.5]];portConstraint=eastwest;" vertex="1" parent="RIfUzzzm_-wpYz4NOER9-0">
          <mxGeometry y="60" width="180" height="30" as="geometry" />
        </mxCell>
        <mxCell id="RIfUzzzm_-wpYz4NOER9-5" value="" style="shape=partialRectangle;connectable=0;fillColor=none;top=0;left=0;bottom=0;right=0;editable=1;overflow=hidden;" vertex="1" parent="RIfUzzzm_-wpYz4NOER9-4">
          <mxGeometry width="30" height="30" as="geometry">
            <mxRectangle width="30" height="30" as="alternateBounds" />
          </mxGeometry>
        </mxCell>
        <mxCell id="RIfUzzzm_-wpYz4NOER9-6" value="name" style="shape=partialRectangle;connectable=0;fillColor=none;top=0;left=0;bottom=0;right=0;align=left;spacingLeft=6;overflow=hidden;" vertex="1" parent="RIfUzzzm_-wpYz4NOER9-4">
          <mxGeometry x="30" width="150" height="30" as="geometry">
            <mxRectangle width="150" height="30" as="alternateBounds" />
          </mxGeometry>
        </mxCell>
        <mxCell id="RIfUzzzm_-wpYz4NOER9-7" value="" style="shape=partialRectangle;collapsible=0;dropTarget=0;pointerEvents=0;fillColor=none;top=0;left=0;bottom=0;right=0;points=[[0,0.5],[1,0.5]];portConstraint=eastwest;" vertex="1" parent="RIfUzzzm_-wpYz4NOER9-0">
          <mxGeometry y="90" width="180" height="30" as="geometry" />
        </mxCell>
        <mxCell id="RIfUzzzm_-wpYz4NOER9-8" value="FK" style="shape=partialRectangle;connectable=0;fillColor=none;top=0;left=0;bottom=0;right=0;editable=1;overflow=hidden;fontStyle=1" vertex="1" parent="RIfUzzzm_-wpYz4NOER9-7">
          <mxGeometry width="30" height="30" as="geometry">
            <mxRectangle width="30" height="30" as="alternateBounds" />
          </mxGeometry>
        </mxCell>
        <mxCell id="RIfUzzzm_-wpYz4NOER9-9" value="locno" style="shape=partialRectangle;connectable=0;fillColor=none;top=0;left=0;bottom=0;right=0;align=left;spacingLeft=6;overflow=hidden;" vertex="1" parent="RIfUzzzm_-wpYz4NOER9-7">
          <mxGeometry x="30" width="150" height="30" as="geometry">
            <mxRectangle width="150" height="30" as="alternateBounds" />
          </mxGeometry>
        </mxCell>
        <mxCell id="RIfUzzzm_-wpYz4NOER9-10" value="loc" style="shape=table;startSize=30;container=1;collapsible=1;childLayout=tableLayout;fixedRows=1;rowLines=0;fontStyle=1;align=center;resizeLast=1;" vertex="1" parent="tsf6QHsWhYLNX8EQ_W9M-1">
          <mxGeometry x="340" y="-520" width="180" height="90" as="geometry" />
        </mxCell>
        <mxCell id="RIfUzzzm_-wpYz4NOER9-11" value="" style="shape=partialRectangle;collapsible=0;dropTarget=0;pointerEvents=0;fillColor=none;top=0;left=0;bottom=1;right=0;points=[[0,0.5],[1,0.5]];portConstraint=eastwest;" vertex="1" parent="RIfUzzzm_-wpYz4NOER9-10">
          <mxGeometry y="30" width="180" height="30" as="geometry" />
        </mxCell>
        <mxCell id="RIfUzzzm_-wpYz4NOER9-12" value="PK" style="shape=partialRectangle;connectable=0;fillColor=none;top=0;left=0;bottom=0;right=0;fontStyle=1;overflow=hidden;" vertex="1" parent="RIfUzzzm_-wpYz4NOER9-11">
          <mxGeometry width="30" height="30" as="geometry">
            <mxRectangle width="30" height="30" as="alternateBounds" />
          </mxGeometry>
        </mxCell>
        <mxCell id="RIfUzzzm_-wpYz4NOER9-13" value="locno" style="shape=partialRectangle;connectable=0;fillColor=none;top=0;left=0;bottom=0;right=0;align=left;spacingLeft=6;fontStyle=5;overflow=hidden;" vertex="1" parent="RIfUzzzm_-wpYz4NOER9-11">
          <mxGeometry x="30" width="150" height="30" as="geometry">
            <mxRectangle width="150" height="30" as="alternateBounds" />
          </mxGeometry>
        </mxCell>
        <mxCell id="RIfUzzzm_-wpYz4NOER9-14" value="" style="shape=partialRectangle;collapsible=0;dropTarget=0;pointerEvents=0;fillColor=none;top=0;left=0;bottom=0;right=0;points=[[0,0.5],[1,0.5]];portConstraint=eastwest;" vertex="1" parent="RIfUzzzm_-wpYz4NOER9-10">
          <mxGeometry y="60" width="180" height="30" as="geometry" />
        </mxCell>
        <mxCell id="RIfUzzzm_-wpYz4NOER9-15" value="" style="shape=partialRectangle;connectable=0;fillColor=none;top=0;left=0;bottom=0;right=0;editable=1;overflow=hidden;" vertex="1" parent="RIfUzzzm_-wpYz4NOER9-14">
          <mxGeometry width="30" height="30" as="geometry">
            <mxRectangle width="30" height="30" as="alternateBounds" />
          </mxGeometry>
        </mxCell>
        <mxCell id="RIfUzzzm_-wpYz4NOER9-16" value="name" style="shape=partialRectangle;connectable=0;fillColor=none;top=0;left=0;bottom=0;right=0;align=left;spacingLeft=6;overflow=hidden;" vertex="1" parent="RIfUzzzm_-wpYz4NOER9-14">
          <mxGeometry x="30" width="150" height="30" as="geometry">
            <mxRectangle width="150" height="30" as="alternateBounds" />
          </mxGeometry>
        </mxCell>
        <mxCell id="RIfUzzzm_-wpYz4NOER9-17" value="" style="edgeStyle=elbowEdgeStyle;fontSize=12;html=1;endArrow=ERmany;rounded=0;entryX=0;entryY=0.5;entryDx=0;entryDy=0;" edge="1" parent="tsf6QHsWhYLNX8EQ_W9M-1" source="RIfUzzzm_-wpYz4NOER9-11" target="RIfUzzzm_-wpYz4NOER9-7">
          <mxGeometry width="100" height="100" relative="1" as="geometry">
            <mxPoint x="400" y="-559" as="sourcePoint" />
            <mxPoint x="500" y="-659" as="targetPoint" />
            <Array as="points">
              <mxPoint x="290" y="-540" />
            </Array>
          </mxGeometry>
        </mxCell>
        <mxCell id="RIfUzzzm_-wpYz4NOER9-18" value="emp" style="shape=table;startSize=30;container=1;collapsible=1;childLayout=tableLayout;fixedRows=1;rowLines=0;fontStyle=1;align=center;resizeLast=1;" vertex="1" parent="tsf6QHsWhYLNX8EQ_W9M-1">
          <mxGeometry x="600" y="-709" width="180" height="270" as="geometry" />
        </mxCell>
        <mxCell id="RIfUzzzm_-wpYz4NOER9-19" value="" style="shape=partialRectangle;collapsible=0;dropTarget=0;pointerEvents=0;fillColor=none;top=0;left=0;bottom=1;right=0;points=[[0,0.5],[1,0.5]];portConstraint=eastwest;" vertex="1" parent="RIfUzzzm_-wpYz4NOER9-18">
          <mxGeometry y="30" width="180" height="30" as="geometry" />
        </mxCell>
        <mxCell id="RIfUzzzm_-wpYz4NOER9-20" value="PK" style="shape=partialRectangle;connectable=0;fillColor=none;top=0;left=0;bottom=0;right=0;fontStyle=1;overflow=hidden;" vertex="1" parent="RIfUzzzm_-wpYz4NOER9-19">
          <mxGeometry width="30" height="30" as="geometry">
            <mxRectangle width="30" height="30" as="alternateBounds" />
          </mxGeometry>
        </mxCell>
        <mxCell id="RIfUzzzm_-wpYz4NOER9-21" value="empno" style="shape=partialRectangle;connectable=0;fillColor=none;top=0;left=0;bottom=0;right=0;align=left;spacingLeft=6;fontStyle=5;overflow=hidden;" vertex="1" parent="RIfUzzzm_-wpYz4NOER9-19">
          <mxGeometry x="30" width="150" height="30" as="geometry">
            <mxRectangle width="150" height="30" as="alternateBounds" />
          </mxGeometry>
        </mxCell>
        <mxCell id="RIfUzzzm_-wpYz4NOER9-22" value="" style="shape=partialRectangle;collapsible=0;dropTarget=0;pointerEvents=0;fillColor=none;top=0;left=0;bottom=0;right=0;points=[[0,0.5],[1,0.5]];portConstraint=eastwest;" vertex="1" parent="RIfUzzzm_-wpYz4NOER9-18">
          <mxGeometry y="60" width="180" height="30" as="geometry" />
        </mxCell>
        <mxCell id="RIfUzzzm_-wpYz4NOER9-23" value="" style="shape=partialRectangle;connectable=0;fillColor=none;top=0;left=0;bottom=0;right=0;editable=1;overflow=hidden;" vertex="1" parent="RIfUzzzm_-wpYz4NOER9-22">
          <mxGeometry width="30" height="30" as="geometry">
            <mxRectangle width="30" height="30" as="alternateBounds" />
          </mxGeometry>
        </mxCell>
        <mxCell id="RIfUzzzm_-wpYz4NOER9-24" value="ename" style="shape=partialRectangle;connectable=0;fillColor=none;top=0;left=0;bottom=0;right=0;align=left;spacingLeft=6;overflow=hidden;" vertex="1" parent="RIfUzzzm_-wpYz4NOER9-22">
          <mxGeometry x="30" width="150" height="30" as="geometry">
            <mxRectangle width="150" height="30" as="alternateBounds" />
          </mxGeometry>
        </mxCell>
        <mxCell id="RIfUzzzm_-wpYz4NOER9-25" value="" style="shape=partialRectangle;collapsible=0;dropTarget=0;pointerEvents=0;fillColor=none;top=0;left=0;bottom=0;right=0;points=[[0,0.5],[1,0.5]];portConstraint=eastwest;" vertex="1" parent="RIfUzzzm_-wpYz4NOER9-18">
          <mxGeometry y="90" width="180" height="30" as="geometry" />
        </mxCell>
        <mxCell id="RIfUzzzm_-wpYz4NOER9-26" value="" style="shape=partialRectangle;connectable=0;fillColor=none;top=0;left=0;bottom=0;right=0;editable=1;overflow=hidden;fontStyle=1" vertex="1" parent="RIfUzzzm_-wpYz4NOER9-25">
          <mxGeometry width="30" height="30" as="geometry">
            <mxRectangle width="30" height="30" as="alternateBounds" />
          </mxGeometry>
        </mxCell>
        <mxCell id="RIfUzzzm_-wpYz4NOER9-27" value="job" style="shape=partialRectangle;connectable=0;fillColor=none;top=0;left=0;bottom=0;right=0;align=left;spacingLeft=6;overflow=hidden;" vertex="1" parent="RIfUzzzm_-wpYz4NOER9-25">
          <mxGeometry x="30" width="150" height="30" as="geometry">
            <mxRectangle width="150" height="30" as="alternateBounds" />
          </mxGeometry>
        </mxCell>
        <mxCell id="RIfUzzzm_-wpYz4NOER9-28" value="" style="shape=partialRectangle;collapsible=0;dropTarget=0;pointerEvents=0;fillColor=none;top=0;left=0;bottom=0;right=0;points=[[0,0.5],[1,0.5]];portConstraint=eastwest;" vertex="1" parent="RIfUzzzm_-wpYz4NOER9-18">
          <mxGeometry y="120" width="180" height="30" as="geometry" />
        </mxCell>
        <mxCell id="RIfUzzzm_-wpYz4NOER9-29" value="" style="shape=partialRectangle;connectable=0;fillColor=none;top=0;left=0;bottom=0;right=0;editable=1;overflow=hidden;fontStyle=1" vertex="1" parent="RIfUzzzm_-wpYz4NOER9-28">
          <mxGeometry width="30" height="30" as="geometry">
            <mxRectangle width="30" height="30" as="alternateBounds" />
          </mxGeometry>
        </mxCell>
        <mxCell id="RIfUzzzm_-wpYz4NOER9-30" value="hiredate" style="shape=partialRectangle;connectable=0;fillColor=none;top=0;left=0;bottom=0;right=0;align=left;spacingLeft=6;overflow=hidden;" vertex="1" parent="RIfUzzzm_-wpYz4NOER9-28">
          <mxGeometry x="30" width="150" height="30" as="geometry">
            <mxRectangle width="150" height="30" as="alternateBounds" />
          </mxGeometry>
        </mxCell>
        <mxCell id="RIfUzzzm_-wpYz4NOER9-31" value="" style="shape=partialRectangle;collapsible=0;dropTarget=0;pointerEvents=0;fillColor=none;top=0;left=0;bottom=0;right=0;points=[[0,0.5],[1,0.5]];portConstraint=eastwest;" vertex="1" parent="RIfUzzzm_-wpYz4NOER9-18">
          <mxGeometry y="150" width="180" height="30" as="geometry" />
        </mxCell>
        <mxCell id="RIfUzzzm_-wpYz4NOER9-32" value="" style="shape=partialRectangle;connectable=0;fillColor=none;top=0;left=0;bottom=0;right=0;editable=1;overflow=hidden;fontStyle=1" vertex="1" parent="RIfUzzzm_-wpYz4NOER9-31">
          <mxGeometry width="30" height="30" as="geometry">
            <mxRectangle width="30" height="30" as="alternateBounds" />
          </mxGeometry>
        </mxCell>
        <mxCell id="RIfUzzzm_-wpYz4NOER9-33" value="sal" style="shape=partialRectangle;connectable=0;fillColor=none;top=0;left=0;bottom=0;right=0;align=left;spacingLeft=6;overflow=hidden;" vertex="1" parent="RIfUzzzm_-wpYz4NOER9-31">
          <mxGeometry x="30" width="150" height="30" as="geometry">
            <mxRectangle width="150" height="30" as="alternateBounds" />
          </mxGeometry>
        </mxCell>
        <mxCell id="RIfUzzzm_-wpYz4NOER9-34" value="" style="shape=partialRectangle;collapsible=0;dropTarget=0;pointerEvents=0;fillColor=none;top=0;left=0;bottom=0;right=0;points=[[0,0.5],[1,0.5]];portConstraint=eastwest;" vertex="1" parent="RIfUzzzm_-wpYz4NOER9-18">
          <mxGeometry y="180" width="180" height="30" as="geometry" />
        </mxCell>
        <mxCell id="RIfUzzzm_-wpYz4NOER9-35" value="" style="shape=partialRectangle;connectable=0;fillColor=none;top=0;left=0;bottom=0;right=0;editable=1;overflow=hidden;fontStyle=1" vertex="1" parent="RIfUzzzm_-wpYz4NOER9-34">
          <mxGeometry width="30" height="30" as="geometry">
            <mxRectangle width="30" height="30" as="alternateBounds" />
          </mxGeometry>
        </mxCell>
        <mxCell id="RIfUzzzm_-wpYz4NOER9-36" value="com" style="shape=partialRectangle;connectable=0;fillColor=none;top=0;left=0;bottom=0;right=0;align=left;spacingLeft=6;overflow=hidden;" vertex="1" parent="RIfUzzzm_-wpYz4NOER9-34">
          <mxGeometry x="30" width="150" height="30" as="geometry">
            <mxRectangle width="150" height="30" as="alternateBounds" />
          </mxGeometry>
        </mxCell>
        <mxCell id="RIfUzzzm_-wpYz4NOER9-37" value="" style="shape=partialRectangle;collapsible=0;dropTarget=0;pointerEvents=0;fillColor=none;top=0;left=0;bottom=0;right=0;points=[[0,0.5],[1,0.5]];portConstraint=eastwest;" vertex="1" parent="RIfUzzzm_-wpYz4NOER9-18">
          <mxGeometry y="210" width="180" height="30" as="geometry" />
        </mxCell>
        <mxCell id="RIfUzzzm_-wpYz4NOER9-38" value="FK" style="shape=partialRectangle;connectable=0;fillColor=none;top=0;left=0;bottom=0;right=0;editable=1;overflow=hidden;fontStyle=1" vertex="1" parent="RIfUzzzm_-wpYz4NOER9-37">
          <mxGeometry width="30" height="30" as="geometry">
            <mxRectangle width="30" height="30" as="alternateBounds" />
          </mxGeometry>
        </mxCell>
        <mxCell id="RIfUzzzm_-wpYz4NOER9-39" value="deptno" style="shape=partialRectangle;connectable=0;fillColor=none;top=0;left=0;bottom=0;right=0;align=left;spacingLeft=6;overflow=hidden;" vertex="1" parent="RIfUzzzm_-wpYz4NOER9-37">
          <mxGeometry x="30" width="150" height="30" as="geometry">
            <mxRectangle width="150" height="30" as="alternateBounds" />
          </mxGeometry>
        </mxCell>
        <mxCell id="hP0p_TUCcX2IZvtmwBaK-0" value="" style="shape=partialRectangle;collapsible=0;dropTarget=0;pointerEvents=0;fillColor=none;top=0;left=0;bottom=0;right=0;points=[[0,0.5],[1,0.5]];portConstraint=eastwest;" vertex="1" parent="RIfUzzzm_-wpYz4NOER9-18">
          <mxGeometry y="240" width="180" height="30" as="geometry" />
        </mxCell>
        <mxCell id="hP0p_TUCcX2IZvtmwBaK-1" value="FK" style="shape=partialRectangle;connectable=0;fillColor=none;top=0;left=0;bottom=0;right=0;editable=1;overflow=hidden;fontStyle=1" vertex="1" parent="hP0p_TUCcX2IZvtmwBaK-0">
          <mxGeometry width="30" height="30" as="geometry">
            <mxRectangle width="30" height="30" as="alternateBounds" />
          </mxGeometry>
        </mxCell>
        <mxCell id="hP0p_TUCcX2IZvtmwBaK-2" value="mgrno" style="shape=partialRectangle;connectable=0;fillColor=none;top=0;left=0;bottom=0;right=0;align=left;spacingLeft=6;overflow=hidden;" vertex="1" parent="hP0p_TUCcX2IZvtmwBaK-0">
          <mxGeometry x="30" width="150" height="30" as="geometry">
            <mxRectangle width="150" height="30" as="alternateBounds" />
          </mxGeometry>
        </mxCell>
        <mxCell id="RIfUzzzm_-wpYz4NOER9-40" value="" style="edgeStyle=elbowEdgeStyle;fontSize=12;html=1;endArrow=ERmany;rounded=0;entryX=0;entryY=0.5;entryDx=0;entryDy=0;exitX=1;exitY=0.5;exitDx=0;exitDy=0;" edge="1" parent="tsf6QHsWhYLNX8EQ_W9M-1" source="RIfUzzzm_-wpYz4NOER9-1" target="RIfUzzzm_-wpYz4NOER9-37">
          <mxGeometry width="100" height="100" relative="1" as="geometry">
            <mxPoint x="430" y="-479" as="sourcePoint" />
            <mxPoint x="500" y="-459" as="targetPoint" />
          </mxGeometry>
        </mxCell>
        <mxCell id="RIfUzzzm_-wpYz4NOER9-41" value="mgr" style="shape=table;startSize=30;container=1;collapsible=1;childLayout=tableLayout;fixedRows=1;rowLines=0;fontStyle=1;align=center;resizeLast=1;" vertex="1" parent="tsf6QHsWhYLNX8EQ_W9M-1">
          <mxGeometry x="850" y="-470" width="180" height="70" as="geometry" />
        </mxCell>
        <mxCell id="RIfUzzzm_-wpYz4NOER9-42" value="" style="shape=partialRectangle;collapsible=0;dropTarget=0;pointerEvents=0;fillColor=none;top=0;left=0;bottom=0;right=0;points=[[0,0.5],[1,0.5]];portConstraint=eastwest;" vertex="1" parent="RIfUzzzm_-wpYz4NOER9-41">
          <mxGeometry y="30" width="180" height="30" as="geometry" />
        </mxCell>
        <mxCell id="RIfUzzzm_-wpYz4NOER9-43" value="FK, PK" style="shape=partialRectangle;connectable=0;fillColor=none;top=0;left=0;bottom=0;right=0;editable=1;overflow=hidden;fontStyle=1" vertex="1" parent="RIfUzzzm_-wpYz4NOER9-42">
          <mxGeometry width="50" height="30" as="geometry">
            <mxRectangle width="50" height="30" as="alternateBounds" />
          </mxGeometry>
        </mxCell>
        <mxCell id="RIfUzzzm_-wpYz4NOER9-44" value="mgrno" style="shape=partialRectangle;connectable=0;fillColor=none;top=0;left=0;bottom=0;right=0;align=left;spacingLeft=6;overflow=hidden;" vertex="1" parent="RIfUzzzm_-wpYz4NOER9-42">
          <mxGeometry x="50" width="130" height="30" as="geometry">
            <mxRectangle width="130" height="30" as="alternateBounds" />
          </mxGeometry>
        </mxCell>
        <mxCell id="hP0p_TUCcX2IZvtmwBaK-3" value="" style="edgeStyle=elbowEdgeStyle;fontSize=12;html=1;endArrow=ERmany;rounded=0;entryX=0;entryY=0.5;entryDx=0;entryDy=0;exitX=0.006;exitY=0.933;exitDx=0;exitDy=0;exitPerimeter=0;" edge="1" parent="tsf6QHsWhYLNX8EQ_W9M-1" source="RIfUzzzm_-wpYz4NOER9-42" target="hP0p_TUCcX2IZvtmwBaK-0">
          <mxGeometry width="100" height="100" relative="1" as="geometry">
            <mxPoint x="850" y="-405" as="sourcePoint" />
            <mxPoint x="610" y="-474" as="targetPoint" />
            <Array as="points">
              <mxPoint x="560" y="-430" />
              <mxPoint x="560" y="-410" />
            </Array>
          </mxGeometry>
        </mxCell>
        <mxCell id="T_nQ0FFRc3UsN1VZCO7Z-4" value="" style="endArrow=none;html=1;rounded=0;entryX=-0.011;entryY=0.3;entryDx=0;entryDy=0;entryPerimeter=0;exitX=1;exitY=0.5;exitDx=0;exitDy=0;edgeStyle=elbowEdgeStyle;" edge="1" parent="tsf6QHsWhYLNX8EQ_W9M-1" source="RIfUzzzm_-wpYz4NOER9-19" target="RIfUzzzm_-wpYz4NOER9-42">
          <mxGeometry relative="1" as="geometry">
            <mxPoint x="620" y="-560" as="sourcePoint" />
            <mxPoint x="780" y="-560" as="targetPoint" />
          </mxGeometry>
        </mxCell>
      </root>
    </mxGraphModel>
  </diagram>
</mxfile>
